<svg width="126" height="126" viewBox="0 0 126 126" fill="none" xmlns="http://www.w3.org/2000/svg">
<path d="M26.4996 79.4002C26.4996 86.7002 20.5996 92.6002 13.2996 92.6002C5.99961 92.6002 0.0996094 86.7002 0.0996094 79.4002C0.0996094 72.1002 5.99961 66.2002 13.2996 66.2002H26.4996V79.4002ZM33.0996 79.4002C33.0996 72.1002 38.9996 66.2002 46.2996 66.2002C53.5996 66.2002 59.4996 72.1002 59.4996 79.4002V112.4C59.4996 119.7 53.5996 125.6 46.2996 125.6C38.9996 125.6 33.0996 119.7 33.0996 112.4V79.4002Z" fill="#9DA3B0"/>
<path d="M46.3 26.4C39 26.4 33.1 20.5 33.1 13.2C33.1 5.9 39 0 46.3 0C53.6 0 59.5 5.9 59.5 13.2V26.4H46.3ZM46.3 33.1C53.6 33.1 59.5 39 59.5 46.3C59.5 53.6 53.6 59.5 46.3 59.5H13.2C5.9 59.5 0 53.6 0 46.3C0 39 5.9 33.1 13.2 33.1H46.3Z" fill="#9DA3B0"/>
<path d="M99.2002 46.3C99.2002 39 105.1 33.1 112.4 33.1C119.7 33.1 125.6 39 125.6 46.3C125.6 53.6 119.7 59.5 112.4 59.5H99.2002V46.3ZM92.6002 46.3C92.6002 53.6 86.7002 59.5 79.4002 59.5C72.1002 59.5 66.2002 53.6 66.2002 46.3V13.2C66.2002 5.9 72.1002 0 79.4002 0C86.7002 0 92.6002 5.9 92.6002 13.2V46.3Z" fill="#9DA3B0"/>
<path d="M79.4002 99.2002C86.7002 99.2002 92.6002 105.1 92.6002 112.4C92.6002 119.7 86.7002 125.6 79.4002 125.6C72.1002 125.6 66.2002 119.7 66.2002 112.4V99.2002H79.4002ZM79.4002 92.6002C72.1002 92.6002 66.2002 86.7002 66.2002 79.4002C66.2002 72.1002 72.1002 66.2002 79.4002 66.2002H112.5C119.8 66.2002 125.7 72.1002 125.7 79.4002C125.7 86.7002 119.8 92.6002 112.5 92.6002H79.4002Z" fill="#9DA3B0"/>
</svg>
